HIERARCHY
ROOT Hips
{
  OFFSET 0.0 0.0 0.0
  CHANNELS 6 Xposition Yposition Zposition Zrotation Xrotation Yrotation
  JOINT LeftUpLeg
  {
    OFFSET 0.1 0.0 0.0
    CHANNELS 3 Zrotation Xrotation Yrotation
    JOINT LeftLeg
    {
      OFFSET 0.0 -0.4 0.0
      CHANNELS 3 Zrotation Xrotation Yrotation
      End Site
      {
        OFFSET 0.0 -0.4 0.0
      }
    }
  }
  JOINT RightUpLeg
  {
    OFFSET -0.1 0.0 0.0
    CHANNELS 3 Zrotation Xrotation Yrotation
    JOINT RightLeg
    {
      OFFSET 0.0 -0.4 0.0
      CHANNELS 3 Zrotation Xrotation Yrotation
      End Site
      {
        OFFSET 0.0 -0.4 0.0
      }
    }
  }
}
MOTION
Frames: 61
Frame Time: 0.033333
0.0000 0.7800 0.0000 0.0000 0.0000 0.0000 0.0000 0.0000 0.0000 0.0000 0.0000 0.0000 0.0000 0.0000 0.0000 0.0000 0.0000 0.0000
0.0017 0.7848 0.0012 0.0000 0.0000 0.0000 0.0000 4.9901 0.0000 0.0000 3.7426 0.0000 0.0000 -4.9901 0.0000 0.0000 3.7426 0.0000
0.0033 0.7885 0.0024 0.0000 0.0000 0.0000 0.0000 9.6645 0.0000 0.0000 7.2484 0.0000 0.0000 -9.6645 0.0000 0.0000 7.2484 0.0000
0.0050 0.7900 0.0034 0.0000 0.0000 0.0000 0.0000 13.7277 0.0000 0.0000 10.2957 0.0000 0.0000 -13.7277 0.0000 0.0000 10.2957 0.0000
0.0067 0.7890 0.0042 0.0000 0.0000 0.0000 0.0000 16.9225 0.0000 0.0000 12.6919 0.0000 0.0000 -16.9225 0.0000 0.0000 12.6919 0.0000
0.0084 0.7858 0.0048 0.0000 0.0000 0.0000 0.0000 19.0469 0.0000 0.0000 14.2852 0.0000 0.0000 -19.0469 0.0000 0.0000 14.2852 0.0000
0.0100 0.7812 0.0050 0.0000 0.0000 0.0000 0.0000 19.9666 0.0000 0.0000 14.9750 0.0000 0.0000 -19.9666 0.0000 0.0000 14.9750 0.0000
0.0117 0.7762 0.0049 0.0000 0.0000 0.0000 0.0000 19.6234 0.0000 0.0000 14.7175 0.0000 0.0000 -19.6234 0.0000 0.0000 14.7175 0.0000
0.0134 0.7722 0.0045 0.0000 0.0000 0.0000 0.0000 18.0389 0.0000 0.0000 13.5292 0.0000 0.0000 -18.0389 0.0000 0.0000 13.5292 0.0000
0.0151 0.7701 0.0038 0.0000 0.0000 0.0000 0.0000 15.3134 0.0000 0.0000 11.4850 0.0000 0.0000 -15.3134 0.0000 0.0000 11.4850 0.0000
0.0167 0.7705 0.0029 0.0000 0.0000 0.0000 0.0000 11.6193 0.0000 0.0000 8.7145 0.0000 0.0000 -11.6193 0.0000 0.0000 8.7145 0.0000
0.0184 0.7733 0.0018 0.0000 0.0000 0.0000 0.0000 7.1902 0.0000 0.0000 5.3927 0.0000 0.0000 -7.1902 0.0000 0.0000 5.3927 0.0000
0.0201 0.7777 0.0006 0.0000 0.0000 0.0000 0.0000 2.3064 0.0000 0.0000 1.7298 0.0000 0.0000 -2.3064 0.0000 0.0000 1.7298 0.0000
0.0217 0.7827 -0.0007 0.0000 0.0000 0.0000 0.0000 -2.7233 0.0000 0.0000 2.0425 0.0000 0.0000 2.7233 0.0000 0.0000 2.0425 0.0000
0.0234 0.7870 -0.0019 0.0000 0.0000 0.0000 0.0000 -7.5808 0.0000 0.0000 5.6856 0.0000 0.0000 7.5808 0.0000 0.0000 5.6856 0.0000
0.0251 0.7896 -0.0030 0.0000 0.0000 0.0000 0.0000 -11.9588 0.0000 0.0000 8.9691 0.0000 0.0000 11.9588 0.0000 0.0000 8.9691 0.0000
0.0268 0.7898 -0.0039 0.0000 0.0000 0.0000 0.0000 -15.5803 0.0000 0.0000 11.6852 0.0000 0.0000 15.5803 0.0000 0.0000 11.6852 0.0000
0.0284 0.7875 -0.0046 0.0000 0.0000 0.0000 0.0000 -18.2164 0.0000 0.0000 13.6623 0.0000 0.0000 18.2164 0.0000 0.0000 13.6623 0.0000
0.0301 0.7834 -0.0049 0.0000 0.0000 0.0000 0.0000 -19.7002 0.0000 0.0000 14.7751 0.0000 0.0000 19.7002 0.0000 0.0000 14.7751 0.0000
0.0318 0.7784 -0.0050 0.0000 0.0000 0.0000 0.0000 -19.9379 0.0000 0.0000 14.9535 0.0000 0.0000 19.9379 0.0000 0.0000 14.9535 0.0000
0.0334 0.7739 -0.0047 0.0000 0.0000 0.0000 0.0000 -18.9145 0.0000 0.0000 14.1859 0.0000 0.0000 18.9145 0.0000 0.0000 14.1859 0.0000
0.0351 0.7708 -0.0042 0.0000 0.0000 0.0000 0.0000 -16.6948 0.0000 0.0000 12.5211 0.0000 0.0000 16.6948 0.0000 0.0000 12.5211 0.0000
0.0368 0.7700 -0.0034 0.0000 0.0000 0.0000 0.0000 -13.4190 0.0000 0.0000 10.0643 0.0000 0.0000 13.4190 0.0000 0.0000 10.0643 0.0000
0.0385 0.7718 -0.0023 0.0000 0.0000 0.0000 0.0000 -9.2945 0.0000 0.0000 6.9708 0.0000 0.0000 9.2945 0.0000 0.0000 6.9708 0.0000
0.0401 0.7755 -0.0011 0.0000 0.0000 0.0000 0.0000 -4.5820 0.0000 0.0000 3.4365 0.0000 0.0000 4.5820 0.0000 0.0000 3.4365 0.0000
0.0418 0.7804 0.0001 0.0000 0.0000 0.0000 0.0000 0.4202 0.0000 0.0000 0.3152 0.0000 0.0000 -0.4202 0.0000 0.0000 0.3152 0.0000
0.0435 0.7852 0.0013 0.0000 0.0000 0.0000 0.0000 5.3959 0.0000 0.0000 4.0470 0.0000 0.0000 -5.3959 0.0000 0.0000 4.0470 0.0000
0.0452 0.7887 0.0025 0.0000 0.0000 0.0000 0.0000 10.0303 0.0000 0.0000 7.5227 0.0000 0.0000 -10.0303 0.0000 0.0000 7.5227 0.0000
0.0468 0.7900 0.0035 0.0000 0.0000 0.0000 0.0000 14.0303 0.0000 0.0000 10.5227 0.0000 0.0000 -14.0303 0.0000 0.0000 10.5227 0.0000
0.0485 0.7888 0.0043 0.0000 0.0000 0.0000 0.0000 17.1427 0.0000 0.0000 12.8571 0.0000 0.0000 -17.1427 0.0000 0.0000 12.8571 0.0000
0.0502 0.7855 0.0048 0.0000 0.0000 0.0000 0.0000 19.1709 0.0000 0.0000 14.3782 0.0000 0.0000 -19.1709 0.0000 0.0000 14.3782 0.0000
0.0518 0.7807 0.0050 0.0000 0.0000 0.0000 0.0000 19.9865 0.0000 0.0000 14.9899 0.0000 0.0000 -19.9865 0.0000 0.0000 14.9899 0.0000
0.0535 0.7758 0.0049 0.0000 0.0000 0.0000 0.0000 19.5378 0.0000 0.0000 14.6534 0.0000 0.0000 -19.5378 0.0000 0.0000 14.6534 0.0000
0.0552 0.7720 0.0045 0.0000 0.0000 0.0000 0.0000 17.8534 0.0000 0.0000 13.3901 0.0000 0.0000 -17.8534 0.0000 0.0000 13.3901 0.0000
0.0569 0.7701 0.0038 0.0000 0.0000 0.0000 0.0000 15.0397 0.0000 0.0000 11.2798 0.0000 0.0000 -15.0397 0.0000 0.0000 11.2798 0.0000
0.0585 0.7707 0.0028 0.0000 0.0000 0.0000 0.0000 11.2747 0.0000 0.0000 8.4560 0.0000 0.0000 -11.2747 0.0000 0.0000 8.4560 0.0000
0.0602 0.7736 0.0017 0.0000 0.0000 0.0000 0.0000 6.7965 0.0000 0.0000 5.0974 0.0000 0.0000 -6.7965 0.0000 0.0000 5.0974 0.0000
0.0619 0.7781 0.0005 0.0000 0.0000 0.0000 0.0000 1.8884 0.0000 0.0000 1.4163 0.0000 0.0000 -1.8884 0.0000 0.0000 1.4163 0.0000
0.0635 0.7831 -0.0008 0.0000 0.0000 0.0000 0.0000 -3.1391 0.0000 0.0000 2.3543 0.0000 0.0000 3.1391 0.0000 0.0000 2.3543 0.0000
0.0652 0.7873 -0.0020 0.0000 0.0000 0.0000 0.0000 -7.9680 0.0000 0.0000 5.9760 0.0000 0.0000 7.9680 0.0000 0.0000 5.9760 0.0000
0.0669 0.7897 -0.0031 0.0000 0.0000 0.0000 0.0000 -12.2930 0.0000 0.0000 9.2197 0.0000 0.0000 12.2930 0.0000 0.0000 9.2197 0.0000
0.0686 0.7897 -0.0040 0.0000 0.0000 0.0000 0.0000 -15.8404 0.0000 0.0000 11.8803 0.0000 0.0000 15.8404 0.0000 0.0000 11.8803 0.0000
0.0702 0.7872 -0.0046 0.0000 0.0000 0.0000 0.0000 -18.3858 0.0000 0.0000 13.7894 0.0000 0.0000 18.3858 0.0000 0.0000 13.7894 0.0000
0.0719 0.7830 -0.0049 0.0000 0.0000 0.0000 0.0000 -19.7683 0.0000 0.0000 14.8263 0.0000 0.0000 19.7683 0.0000 0.0000 14.8263 0.0000
0.0736 0.7780 -0.0050 0.0000 0.0000 0.0000 0.0000 -19.9004 0.0000 0.0000 14.9253 0.0000 0.0000 19.9004 0.0000 0.0000 14.9253 0.0000
0.0753 0.7735 -0.0047 0.0000 0.0000 0.0000 0.0000 -18.7738 0.0000 0.0000 14.0804 0.0000 0.0000 18.7738 0.0000 0.0000 14.0804 0.0000
0.0769 0.7706 -0.0041 0.0000 0.0000 0.0000 0.0000 -16.4597 0.0000 0.0000 12.3448 0.0000 0.0000 16.4597 0.0000 0.0000 12.3448 0.0000
0.0786 0.7701 -0.0033 0.0000 0.0000 0.0000 0.0000 -13.1044 0.0000 0.0000 9.8283 0.0000 0.0000 13.1044 0.0000 0.0000 9.8283 0.0000
0.0803 0.7720 -0.0022 0.0000 0.0000 0.0000 0.0000 -8.9203 0.0000 0.0000 6.6902 0.0000 0.0000 8.9203 0.0000 0.0000 6.6902 0.0000
0.0819 0.7759 -0.0010 0.0000 0.0000 0.0000 0.0000 -4.1719 0.0000 0.0000 3.1290 0.0000 0.0000 4.1719 0.0000 0.0000 3.1290 0.0000
0.0836 0.7808 0.0002 0.0000 0.0000 0.0000 0.0000 0.8403 0.0000 0.0000 0.6302 0.0000 0.0000 -0.8403 0.0000 0.0000 0.6302 0.0000
0.0853 0.7856 0.0014 0.0000 0.0000 0.0000 0.0000 5.7994 0.0000 0.0000 4.3496 0.0000 0.0000 -5.7994 0.0000 0.0000 4.3496 0.0000
0.0870 0.7889 0.0026 0.0000 0.0000 0.0000 0.0000 10.3917 0.0000 0.0000 7.7938 0.0000 0.0000 -10.3917 0.0000 0.0000 7.7938 0.0000
0.0886 0.7900 0.0036 0.0000 0.0000 0.0000 0.0000 14.3266 0.0000 0.0000 10.7450 0.0000 0.0000 -14.3266 0.0000 0.0000 10.7450 0.0000
0.0903 0.7886 0.0043 0.0000 0.0000 0.0000 0.0000 17.3554 0.0000 0.0000 13.0166 0.0000 0.0000 -17.3554 0.0000 0.0000 13.0166 0.0000
0.0920 0.7851 0.0048 0.0000 0.0000 0.0000 0.0000 19.2864 0.0000 0.0000 14.4648 0.0000 0.0000 -19.2864 0.0000 0.0000 14.4648 0.0000
0.0936 0.7803 0.0050 0.0000 0.0000 0.0000 0.0000 19.9975 0.0000 0.0000 14.9981 0.0000 0.0000 -19.9975 0.0000 0.0000 14.9981 0.0000
0.0953 0.7754 0.0049 0.0000 0.0000 0.0000 0.0000 19.4437 0.0000 0.0000 14.5828 0.0000 0.0000 -19.4437 0.0000 0.0000 14.5828 0.0000
0.0970 0.7717 0.0044 0.0000 0.0000 0.0000 0.0000 17.6600 0.0000 0.0000 13.2450 0.0000 0.0000 -17.6600 0.0000 0.0000 13.2450 0.0000
0.0987 0.7700 0.0037 0.0000 0.0000 0.0000 0.0000 14.7593 0.0000 0.0000 11.0695 0.0000 0.0000 -14.7593 0.0000 0.0000 11.0695 0.0000
0.1003 0.7708 0.0027 0.0000 0.0000 0.0000 0.0000 10.9251 0.0000 0.0000 8.1938 0.0000 0.0000 -10.9251 0.0000 0.0000 8.1938 0.0000
